<svg width="78" height="40" viewBox="0 0 78 40" fill="none" xmlns="http://www.w3.org/2000/svg">
<g clip-path="url(#clip0_3_3)">
<path d="M78 29H68V39H78V29Z" fill="#EA9644"/>
<path d="M29.88 10.92V39H25.8V34.86C24.64 36.46 23.22 37.72 21.54 38.64C19.86 39.52 18.02 39.96 16.02 39.96C13.34 39.96 10.94 39.32 8.82 38.04C6.7 36.76 5.04 34.98 3.84 32.7C2.64 30.42 2.04 27.82 2.04 24.9C2.04 22.02 2.62 19.46 3.78 17.22C4.98 14.94 6.62 13.16 8.7 11.88C10.82 10.6 13.22 9.96 15.9 9.96C17.94 9.96 19.8 10.42 21.48 11.34C23.2 12.22 24.64 13.48 25.8 15.12V10.92H29.88ZM15.9 36.24C17.82 36.24 19.52 35.76 21 34.8C22.52 33.84 23.7 32.5 24.54 30.78C25.38 29.06 25.8 27.12 25.8 24.96C25.8 22.8 25.38 20.86 24.54 19.14C23.7 17.42 22.52 16.08 21 15.12C19.52 14.16 17.82 13.68 15.9 13.68C14.02 13.68 12.34 14.16 10.86 15.12C9.38 16.08 8.22 17.42 7.38 19.14C6.54 20.82 6.12 22.74 6.12 24.9C6.12 27.1 6.54 29.06 7.38 30.78C8.22 32.5 9.38 33.84 10.86 34.8C12.34 35.76 14.02 36.24 15.9 36.24Z" fill="black"/>
<path d="M61.88 10.92V39H57.8V34.86C56.64 36.46 55.22 37.72 53.54 38.64C51.86 39.52 50.02 39.96 48.02 39.96C45.34 39.96 42.94 39.32 40.82 38.04C38.7 36.76 37.04 34.98 35.84 32.7C34.64 30.42 34.04 27.82 34.04 24.9C34.04 22.02 34.62 19.46 35.78 17.22C36.98 14.94 38.62 13.16 40.7 11.88C42.82 10.6 45.22 9.96 47.9 9.96C49.94 9.96 51.8 10.42 53.48 11.34C55.2 12.22 56.64 13.48 57.8 15.12V10.92H61.88ZM47.9 36.24C49.82 36.24 51.52 35.76 53 34.8C54.52 33.84 55.7 32.5 56.54 30.78C57.38 29.06 57.8 27.12 57.8 24.96C57.8 22.8 57.38 20.86 56.54 19.14C55.7 17.42 54.52 16.08 53 15.12C51.52 14.16 49.82 13.68 47.9 13.68C46.02 13.68 44.34 14.16 42.86 15.12C41.38 16.08 40.22 17.42 39.38 19.14C38.54 20.82 38.12 22.74 38.12 24.9C38.12 27.1 38.54 29.06 39.38 30.78C40.22 32.5 41.38 33.84 42.86 34.8C44.34 35.76 46.02 36.24 47.9 36.24Z" fill="black"/>
</g>
<defs>
<clipPath id="clip0_3_3">
<rect width="78" height="40" fill="white"/>
</clipPath>
</defs>
</svg>
